<svg width="118" height="127" viewBox="0 0 118 127" fill="none" xmlns="http://www.w3.org/2000/svg">
<g filter="url(#filter0_d_161_44)">
<path opacity="0.4" d="M81.4998 76.8748H77.7498V75.9373C77.7498 71.8123 74.3748 68.4373 70.2498 68.4373H61.8123V59.8498C60.8748 59.9623 59.9373 59.9998 58.9998 59.9998C58.0623 59.9998 57.1248 59.9623 56.1873 59.8498V68.4373H47.7498C43.6248 68.4373 40.2498 71.8123 40.2498 75.9373V76.8748H36.4998C34.9623 76.8748 33.6873 78.1498 33.6873 79.6873C33.6873 81.2248 34.9623 82.4998 36.4998 82.4998H81.4998C83.0373 82.4998 84.3123 81.2248 84.3123 79.6873C84.3123 78.1498 83.0373 76.8748 81.4998 76.8748ZM34.6998 43.6498C32.2248 42.7123 30.0498 41.1748 28.3248 39.4498C24.8373 35.5873 22.5498 30.9748 22.5498 25.5748C22.5498 20.1748 26.7873 15.9373 32.1873 15.9373H34.2873C33.3123 17.9248 32.7498 20.1373 32.7498 22.4998V33.7498C32.7498 37.2748 33.4248 40.6123 34.6998 43.6498ZM95.4498 25.5748C95.4498 30.9748 93.1623 35.5873 89.6748 39.4498C87.9498 41.1748 85.7748 42.7123 83.2998 43.6498C84.5748 40.6123 85.2498 37.2748 85.2498 33.7498V22.4998C85.2498 20.1373 84.6873 17.9248 83.7123 15.9373H85.8123C91.2123 15.9373 95.4498 20.1748 95.4498 25.5748Z" fill="url(#paint0_linear_161_44)"/>
<path d="M70.249 7.49977H47.749C39.4615 7.49977 32.749 14.2123 32.749 22.4998V33.7498C32.749 48.2623 44.4865 59.9998 58.999 59.9998C73.5115 59.9998 85.249 48.2623 85.249 33.7498V22.4998C85.249 14.2123 78.5365 7.49977 70.249 7.49977ZM69.649 31.6873L67.324 34.5373C66.949 34.9498 66.6865 35.7748 66.724 36.3373L66.949 40.0123C67.099 42.2623 65.4865 43.4248 63.3865 42.5998L59.974 41.2498C59.3375 41.0623 58.6605 41.0623 58.024 41.2498L54.6115 42.5998C52.5115 43.4248 50.899 42.2623 51.049 40.0123L51.274 36.3373C51.2882 35.6859 51.0762 35.0498 50.674 34.5373L48.349 31.6873C46.8865 29.9623 47.524 28.0498 49.699 27.4873L53.2615 26.5873C53.824 26.4373 54.499 25.9123 54.799 25.4248L56.7865 22.3498C58.024 20.4373 59.974 20.4373 61.2115 22.3498L63.199 25.4248C63.499 25.9123 64.174 26.4373 64.7365 26.5873L68.299 27.4873C70.474 28.0498 71.1115 29.9623 69.649 31.6873Z" fill="url(#paint1_linear_161_44)"/>
<path opacity="0.4" d="M69.6505 31.6876L67.3255 34.5376C66.9505 34.9501 66.688 35.7751 66.7255 36.3376L66.9505 40.0127C67.1005 42.2627 65.488 43.4251 63.388 42.6001L59.9755 41.2502C59.339 41.0626 58.662 41.0626 58.0255 41.2502L54.613 42.6001C52.513 43.4251 50.9005 42.2627 51.0505 40.0127L51.2755 36.3376C51.2897 35.6863 51.0777 35.0502 50.6755 34.5376L48.3505 31.6876C46.888 29.9626 47.5255 28.0501 49.7005 27.4876L53.263 26.5876C53.8255 26.4376 54.5005 25.9126 54.8005 25.4251L56.788 22.3501C58.0255 20.4376 59.9755 20.4376 61.213 22.3501L63.2005 25.4251C63.5005 25.9126 64.1755 26.4376 64.738 26.5876L68.3005 27.4876C70.4755 28.0501 71.113 29.9626 69.6505 31.6876Z" fill="white"/>
</g>
<defs>
<filter id="filter0_d_161_44" x="-8" y="0" width="134" height="134" filterUnits="userSpaceOnUse" color-interpolation-filters="sRGB">
<feFlood flood-opacity="0" result="BackgroundImageFix"/>
<feColorMatrix in="SourceAlpha" type="matrix" values="0 0 0 0 0 0 0 0 0 0 0 0 0 0 0 0 0 0 127 0" result="hardAlpha"/>
<feOffset dy="22"/>
<feGaussianBlur stdDeviation="11"/>
<feComposite in2="hardAlpha" operator="out"/>
<feColorMatrix type="matrix" values="0 0 0 0 0 0 0 0 0 0 0 0 0 0 0 0 0 0 0.25 0"/>
<feBlend mode="normal" in2="BackgroundImageFix" result="effect1_dropShadow_161_44"/>
<feBlend mode="normal" in="SourceGraphic" in2="effect1_dropShadow_161_44" result="shape"/>
</filter>
<linearGradient id="paint0_linear_161_44" x1="58.9998" y1="15.9373" x2="58.9998" y2="82.4998" gradientUnits="userSpaceOnUse">
<stop stop-color="#7C38EC"/>
<stop offset="1" stop-color="#330847"/>
</linearGradient>
<linearGradient id="paint1_linear_161_44" x1="58.999" y1="7.49977" x2="58.999" y2="59.9998" gradientUnits="userSpaceOnUse">
<stop stop-color="#7C38EC"/>
<stop offset="1" stop-color="#330847"/>
</linearGradient>
</defs>
</svg>
