<svg width="60" height="60" viewBox="0 0 60 60" fill="none" xmlns="http://www.w3.org/2000/svg">
<path d="M13.125 7.5V48.75H46.875V7.5H13.125ZM11.25 3.75H48.75C49.2473 3.75 49.7242 3.94754 50.0758 4.29917C50.4275 4.65081 50.625 5.12772 50.625 5.625V50.625C50.625 51.1223 50.4275 51.5992 50.0758 51.9508C49.7242 52.3025 49.2473 52.5 48.75 52.5H11.25C10.7527 52.5 10.2758 52.3025 9.92418 51.9508C9.57254 51.5992 9.375 51.1223 9.375 50.625V5.625C9.375 5.12772 9.57254 4.65081 9.92418 4.29917C10.2758 3.94754 10.7527 3.75 11.25 3.75Z" fill="black"/>
<path d="M3.75 48.75H56.25V52.5H3.75V48.75ZM18.75 11.25H26.25V16.875H18.75V11.25Z" fill="black"/>
<path d="M22.5 48.75H37.5V45C37.5 43.0109 36.7098 41.1032 35.3033 39.6967C33.8968 38.2902 31.9891 37.5 30 37.5C28.0109 37.5 26.1032 38.2902 24.6967 39.6967C23.2902 41.1032 22.5 43.0109 22.5 45V48.75ZM30 33.75C32.9837 33.75 35.8452 34.9353 37.955 37.045C40.0647 39.1548 41.25 42.0163 41.25 45V52.5H18.75V45C18.75 42.0163 19.9353 39.1548 22.045 37.045C24.1548 34.9353 27.0163 33.75 30 33.75ZM18.75 22.5H26.25V28.125H18.75V22.5ZM33.75 11.25H41.25V16.875H33.75V11.25ZM33.75 22.5H41.25V28.125H33.75V22.5Z" fill="black"/>
</svg>
