<svg width="60" height="60" viewBox="0 0 60 60" fill="none" xmlns="http://www.w3.org/2000/svg">
<path d="M43.125 16.875H41.25V19.6875H43.125V16.875Z" fill="#6096BA"/>
<path d="M43.125 10.3125H41.25V15H43.125V10.3125Z" fill="#6096BA"/>
<path d="M42.1875 17.8125C43.223 17.8125 44.0625 16.973 44.0625 15.9375C44.0625 14.902 43.223 14.0625 42.1875 14.0625C41.152 14.0625 40.3125 14.902 40.3125 15.9375C40.3125 16.973 41.152 17.8125 42.1875 17.8125Z" fill="#F5DD90"/>
<path d="M22.5 12.0657V14.0625C22.5 16.1344 24.1781 17.8125 26.25 17.8125H33.75C35.8219 17.8125 37.5 16.1344 37.5 14.0625V12.0657L30 14.0625L22.5 12.0657Z" fill="#6096BA"/>
<path d="M30 14.0625L15.9375 10.3125L30 2.8125L44.0625 10.3125L30 14.0625Z" fill="#274C77"/>
<path d="M18.75 55.3125V30.9375L30 19.6875L41.25 30.9375V55.3125" fill="#6096BA"/>
<path d="M30 37.5C32.5888 37.5 34.6875 35.4013 34.6875 32.8125C34.6875 30.2237 32.5888 28.125 30 28.125C27.4112 28.125 25.3125 30.2237 25.3125 32.8125C25.3125 35.4013 27.4112 37.5 30 37.5Z" fill="#FFBC0A"/>
<path d="M11.25 18.75H1.875L5.625 21.5625L1.875 24.375H11.25" fill="#F5DD90"/>
<path d="M18.75 36.5625H8.4375V55.3125H18.75V36.5625Z" fill="#274C77"/>
<path d="M51.5625 36.5625H41.25V55.3125H51.5625V36.5625Z" fill="#274C77"/>
<path d="M26.25 55.3125V47.8125H33.75V55.3125" fill="#F5DD90"/>
<path d="M41.25 30.9375H53.4375V36.5625H41.25" fill="#8B8C89"/>
<path d="M18.75 36.5625H6.5625V30.9375H18.75" fill="#8B8C89"/>
<path d="M58.125 55.3125H1.875V57.1875H58.125V55.3125Z" fill="#8B8C89"/>
<path d="M30.9375 47.8125H29.0625V55.3125H30.9375V47.8125Z" fill="#FFBC0A"/>
<path d="M30 37.5C27.4125 37.5 25.3125 35.4 25.3125 32.8125C25.3125 30.225 27.4125 28.125 30 28.125" fill="#F5DD90"/>
<path d="M13.125 17.8125H11.25V30.9375H13.125V17.8125Z" fill="#6096BA"/>
<path d="M48.75 18.75H58.125L54.375 21.5625L58.125 24.375H48.75" fill="#F5DD90"/>
<path d="M46.875 30.9375H48.75V17.8125H46.875V30.9375Z" fill="#6096BA"/>
</svg>
